<svg width="596" height="596" viewBox="0 0 596 596" fill="none" xmlns="http://www.w3.org/2000/svg">
<path fill-rule="evenodd" clip-rule="evenodd" d="M192.44 24.7895C210.54 24.6895 226.14 24.6895 239.34 24.6895C278.94 24.6895 297.34 24.8895 298.54 25.2895C300.14 25.7895 302.14 27.1895 303.44 28.7895L305.64 31.4895V50.8895V70.2895L303.64 70.6895C302.54 70.8895 299.24 71.2895 296.24 71.4895C285.94 72.2895 266.74 76.7895 254.54 81.2895L246.64 84.1895H162.34C97.74 84.1895 77.84 84.3894 77.14 85.0894C76.14 86.0894 75.94 97.7895 76.84 99.2895C77.34 99.9895 92.54 100.289 147.44 100.389L217.44 100.589L212.94 103.689C210.54 105.389 208.04 107.189 207.54 107.689C207.04 108.189 205.34 109.589 203.74 110.789C202.14 111.989 198.74 114.989 196.04 117.489L191.14 122.089H123.54H55.94L56.14 129.889L56.34 137.689L116.24 137.889C149.24 137.989 176.24 138.189 176.44 138.389C176.54 138.489 176.04 139.589 175.14 140.689C170.94 146.089 169.44 148.289 166.04 153.789L162.44 159.689H109.24H56.04V166.989V174.589H104.54C131.24 174.589 153.24 174.789 153.44 175.089C153.54 175.389 152.44 178.889 150.84 182.889C149.6 185.99 148.239 189.512 147.364 191.777L147.364 191.778L147.363 191.779L147.363 191.78C147.11 192.435 146.897 192.985 146.74 193.389L145.54 196.689L100.64 197.089L55.74 197.489L55.84 204.689C55.94 208.689 56.14 212.089 56.24 212.189C56.34 212.289 75.24 212.389 98.14 212.389C121.04 212.289 140.14 212.589 140.64 212.889C141.34 213.289 141.34 214.489 140.74 217.789C140.34 220.189 139.74 224.689 139.44 227.789C139.14 230.889 138.64 233.689 138.34 233.989C138.04 234.289 124.74 234.689 108.84 234.789L79.84 234.989V242.589V250.189H106.54C121.24 250.189 133.94 250.389 134.74 250.589C136.14 250.989 136.34 251.689 136.74 257.689C136.94 261.389 137.64 266.189 138.24 268.389C138.84 270.589 139.34 272.489 139.34 272.589C139.34 272.689 117.24 272.889 90.14 272.989L40.94 273.189V280.489V287.789L91.54 287.989L142.14 288.189L143.34 292.389C143.603 293.255 143.952 294.432 144.337 295.734C144.976 297.892 145.716 300.394 146.34 302.389C147.34 305.589 148.14 308.789 148.14 309.489C148.14 310.589 144.04 310.689 88.44 310.589C55.64 310.589 28.14 310.389 27.34 310.189C24.94 309.589 22.54 307.589 20.74 304.789C19.04 301.989 19.04 301.889 19.04 280.689C19.04 256.889 19.14 256.389 23.84 252.989L26.44 250.989L42.14 250.589L57.84 250.189V242.889V235.589L49.44 235.189C40.24 234.689 38.34 233.989 35.44 229.889L33.84 227.589L33.64 168.789C33.6324 166.277 33.6248 163.865 33.6175 161.547L33.6175 161.542L33.6173 161.496L33.6173 161.481C33.4616 112.139 33.4423 106.041 36.4403 103.494C36.8631 103.135 37.3459 102.847 37.8967 102.517L37.8969 102.517L37.898 102.517C38.0718 102.413 38.2524 102.305 38.44 102.189C40.54 100.889 42.54 100.489 47.64 100.189L54.14 99.7895L54.54 84.8895C54.94 68.5895 55.34 66.7895 59.44 64.0895C61.04 62.9895 63.24 62.6894 71.24 62.3895L81.04 61.9895L81.44 46.9895C81.84 30.5895 82.04 30.0895 86.84 26.4895C88.8393 24.99 89.1398 24.9895 192.321 24.7897L192.44 24.7895ZM194.04 46.7895H104.34L104.14 53.5895C104.04 57.3895 104.14 60.8895 104.34 61.3895C104.64 62.1894 120.34 62.3895 194.24 62.1895L283.74 61.9895V54.3895V46.7895H194.04ZM352.667 96.3258C343.402 89.108 331.753 84.8086 319.099 84.8086C307.096 84.8086 295.997 88.677 286.98 95.2352C286.979 95.2355 286.978 95.2357 286.976 95.236C277.18 102.363 269.842 112.665 266.474 124.63L266.475 124.63C265.146 129.349 264.436 134.328 264.436 139.472C264.436 154.138 270.211 167.454 279.611 177.271L332.279 236.174C335.405 239.445 337.324 243.878 337.324 248.76C337.324 258.823 329.167 266.981 319.103 266.981C309.04 266.981 300.882 258.823 300.882 248.76C300.882 243.513 303.1 238.784 306.649 235.459L282.411 208.352C271.389 218.353 264.468 232.791 264.468 248.846C264.468 279.036 288.942 303.509 319.131 303.509C349.321 303.509 373.795 279.036 373.795 248.846C373.795 233.935 367.825 220.419 358.146 210.557L339.919 190.053L340.294 189.875C359.957 181.596 373.763 162.146 373.763 139.472C373.763 134.861 373.192 130.382 372.116 126.104C372.117 126.105 372.117 126.105 372.117 126.105C370.95 121.461 369.19 117.054 366.92 112.967C363.33 106.503 358.468 100.844 352.671 96.3269C352.67 96.3265 352.668 96.3261 352.667 96.3258ZM254.64 105.389C258.227 103.806 261.646 102.432 265.165 101.188C259.119 109.692 255.033 119.687 253.567 130.514C237.462 139.275 223.102 151.389 211.24 166.289C208.14 170.189 205.64 173.589 205.64 173.889C205.64 174.189 205.24 174.989 204.64 175.589C200.04 180.789 190.04 203.289 187.04 215.189C183.24 230.489 182.84 233.489 182.94 250.389V250.989C183.24 274.989 189.74 297.589 200.94 316.989C201.04 316.989 201.04 317.089 201.04 317.089C205.24 324.389 210.04 331.189 215.54 337.589C233.04 357.589 257.64 373.289 281.94 379.489C283.179 379.817 284.484 380.159 285.711 380.479C287.85 381.039 289.75 381.535 290.64 381.789C292.04 382.189 298.24 382.989 304.44 383.689C313.74 384.689 317.24 384.689 324.44 384.089C328.94 383.689 332.94 383.489 333.54 383.589C342.54 382.589 351.34 380.589 359.74 377.789L359.64 400.489C351.04 402.989 342.04 404.689 332.84 405.589C332.04 405.789 330.44 405.889 328.44 405.989H328.34C324.74 406.289 321.14 406.389 317.54 406.389C312.84 406.389 308.24 406.189 303.64 405.789C302.343 405.721 301.185 405.606 300.199 405.508C299.741 405.463 299.321 405.421 298.94 405.389C294.84 404.889 290.64 404.189 286.64 403.389C277.94 401.689 269.54 399.189 261.44 396.089C259.84 395.489 258.64 395.089 258.24 394.989C255.34 394.089 249.84 391.389 243.84 387.989C238.94 385.289 234.14 382.389 229.54 379.289C227.24 377.789 225.04 376.289 223.24 374.889C215.14 368.889 210.04 364.389 203.44 356.989C199.54 352.789 195.84 348.489 192.44 343.889C192.24 343.789 192.14 343.689 192.04 343.489C185.64 335.589 177.34 321.089 171.84 308.289C170.14 304.289 167.14 295.189 165.24 287.789C163.64 281.689 163.04 278.089 161.24 262.789C160.44 256.189 160.94 234.689 162.04 227.989C163.94 216.589 164.44 213.889 166.44 206.889C179.04 161.889 211.84 124.089 254.64 105.389ZM397.24 140.789C393.532 138.051 389.32 135.329 384.898 132.77C384.213 125.964 382.497 119.463 379.907 113.425C383.289 112.795 386.47 111.592 389.345 109.92C413.426 122.494 433.847 141.168 448.54 163.889C448.61 164.1 448.73 164.261 448.864 164.442C448.921 164.519 448.98 164.6 449.04 164.689C449.74 165.789 450.54 167.089 451.34 168.489C453.84 172.789 456.24 177.189 458.34 181.689C458.74 182.389 459.04 182.989 459.34 183.689C459.628 184.323 459.883 184.923 460.123 185.49C460.301 185.908 460.47 186.307 460.64 186.689C468.84 205.489 473.34 226.289 473.54 248.189V249.289C473.54 260.689 472.34 271.889 470.04 282.689C463.64 282.189 455.24 282.089 447.74 283.089C450.54 272.289 452.04 260.889 452.04 249.189V248.289C451.94 229.089 447.84 210.889 440.54 194.389C440.04 193.789 439.54 192.989 439.14 191.989C437.54 188.189 430.64 176.389 427.24 171.489C420.14 161.289 407.64 148.489 397.24 140.789ZM446.14 305.889C449.74 305.189 455.44 304.789 461.24 304.789C467.04 304.889 472.84 305.189 476.54 305.889C492.74 309.189 506.24 316.489 517.84 328.289C530.74 341.389 537.94 356.189 540.64 374.889C541.04 377.689 541.34 391.289 541.34 405.189V430.389H546.34C559.04 430.389 568.24 435.089 573.64 444.289L576.24 448.689V501.489V554.289L573.54 558.989C571.54 562.389 569.54 564.689 566.24 567.189L561.64 570.589H462.04H362.44L358.24 568.189C355.94 566.889 352.94 564.789 351.64 563.489C349.44 561.289 348.44 559.589 345.34 552.889C344.04 549.989 343.44 460.089 344.64 454.189C346.84 443.389 355.04 434.389 364.94 431.789C366.34 431.389 370.54 430.789 374.34 430.589L381.24 430.089L381.64 400.689C381.94 384.489 382.34 370.489 382.64 369.489C382.712 369.251 382.829 368.863 382.98 368.366L382.98 368.363C383.461 366.778 384.279 364.076 385.04 361.489C387.74 352.189 390.14 347.389 396.34 338.489C408.54 320.989 424.94 310.289 446.14 305.889ZM466.64 328.089C464.94 327.889 463.04 327.789 461.04 327.789C455.14 327.789 448.34 328.989 442.04 331.089C432.84 334.089 422.44 342.089 414.74 352.189C410.74 357.389 410.54 357.889 407.74 365.989L405.44 372.789L405.04 401.089C404.84 416.689 404.74 429.689 404.84 429.989C404.94 430.289 430.34 430.489 461.24 430.489H517.44V403.089C517.44 372.789 517.24 370.889 512.74 360.989C504.24 342.389 488.24 330.989 466.64 328.089ZM463.04 464.089C462.44 463.989 461.74 463.989 461.14 463.989C456.84 463.889 453.24 465.089 449.84 467.589C443.64 472.289 441.84 476.789 441.74 487.689C441.64 496.189 442.64 499.689 446.34 504.389L449.24 508.089V518.489C449.24 529.289 449.94 532.989 452.54 535.889C454.74 538.389 457.94 539.489 462.44 539.189C465.84 538.989 467.04 538.589 468.84 536.789C472.64 533.189 473.14 530.989 473.14 518.889V507.989L475.44 505.389C479.74 500.489 480.64 497.189 480.64 487.489C480.64 477.289 479.44 473.789 474.64 469.489C470.64 465.889 467.74 464.489 463.04 464.089ZM392.659 84.2368C392.659 94.3001 384.501 102.458 374.438 102.458C364.375 102.458 356.217 94.3001 356.217 84.2368C356.217 74.1735 364.375 66.0156 374.438 66.0156C384.501 66.0156 392.659 74.1735 392.659 84.2368ZM319.099 157.693C329.162 157.693 337.32 149.535 337.32 139.472C337.32 129.409 329.162 121.251 319.099 121.251C309.036 121.251 300.878 129.409 300.878 139.472C300.878 149.535 309.036 157.693 319.099 157.693Z" fill="black"/>
</svg>
