<?xml version="1.0" encoding="utf-8"?>
<!-- Generator: Adobe Illustrator 22.1.0, SVG Export Plug-In . SVG Version: 6.00 Build 0)  -->
<svg version="1.1" id="svg875" xmlns="http://www.w3.org/2000/svg" xmlns:xlink="http://www.w3.org/1999/xlink" x="0px" y="0px"
	 viewBox="0 0 389 389" style="enable-background:new 0 0 389 389;" xml:space="preserve">
<g>
	<path d="M230.9,317.3l-0.5-3.5H141H51.6l-3.3-1.7c-1.9-0.9-4.4-3.1-5.6-4.9c-2-2.8-2.3-3.9-2.5-9.5c-0.2-3.5-0.1-6.3,0.1-6.3
		s1.8,0.7,3.6,1.5c3.2,1.5,5.2,1.5,95.2,1.5h92l0.5-2.8c0.2-1.5,0.6-3.6,0.9-4.5l0.5-1.7h-91.4H50.2l-3.3-1.7
		c-1.8-0.9-4.1-2.8-5-4.2l-1.7-2.5v-96.6V83.8h24.7h25v5.1c0,4.3-0.3,5.4-1.6,6.6c-6.8,6.2-4.8,19.2,3.7,23.5c4.1,2.1,7,2.5,11,1.5
		c6.6-1.7,11.6-8.3,11.6-15.3c0-2.8-2.3-7.8-4.4-9.7c-1.3-1.2-1.6-2.3-1.6-6.6v-5.1l64.3,0.2l64.3,0.2l0.2,4.3
		c0.2,3.9,0,4.7-1.8,6.8c-8.8,10.4-2.3,25.5,11,25.5c8.6,0,14.9-6.3,14.9-14.8c0-4.3-1.7-8.9-4.1-10.9c-0.9-0.7-1.2-2.3-1.2-6.1
		v-5.2H281h24.7v74.1V232l5.6,0.5c3.1,0.3,7.3,1,9.4,1.5l3.8,1v-82V71l-2.6-2.8l-2.6-2.8l-31.6-0.2L256.1,65v-5.3
		c0-2.9-0.5-6.4-1.1-7.8c-2-4.9-8.3-7-13.2-4.5c-3.4,1.8-4.5,4.7-4.5,11.6v6h-64.5h-64.5v-6.4c0-6.2-0.1-6.5-2.5-9.1
		c-1.9-2.1-3.1-2.7-5.8-3c-4.1-0.4-6.5,0.8-8.8,4.2c-1.4,2.1-1.7,3.5-1.7,8.4V65H59.1c-33.7,0-34.3,0.1-36.9,4.8
		C21,72,20.9,80.2,20.7,183.9c-0.1,72.1,0.1,114,0.6,118.1c1,8.1,4.5,15.5,9.8,20.8c4.1,4,10.8,8,15.5,9.1
		c1.7,0.4,42.8,0.7,95.5,0.5l92.7,0.1l-1.7-5.8C232.2,323.5,231.2,319.2,230.9,317.3z"/>
	<path d="M74.6,239.4c-3.2,1.7-3.7,3.3-3.7,12.4c0,8.2,0,8.3,2.2,10.5l2.2,2.3h13.9h13.9l2.4-2.2c2.4-2.2,2.4-2.3,2.7-9.6l0,0
		c0.3-8.3-0.8-11.9-4.3-13.6C101,237.8,77.5,237.9,74.6,239.4z"/>
	<path d="M146.2,238.1H133l-2.5,2.6l-2.5,2.6v7.8c0,8.3,0.7,10.6,3.8,12.3c2.4,1.4,26.7,1.5,29.5,0.1c3.2-1.5,4.1-4.3,4.1-12.2
		C165.4,238.6,164.6,238.1,146.2,238.1z"/>
	<path d="M218.8,238.7h-14.7h-14.8l-1.8,2.1c-1.7,1.9-1.8,2.6-1.8,10.7c0,8.5,0,8.6,2.2,10.8l2.1,2.2h14h14l2.2-2.2
		c2.2-2.1,2.2-2.2,2.2-10.8c0-8-0.1-8.7-1.8-10.7L218.8,238.7z"/>
	<path d="M89.4,198.5c-17.7,0-18.5,0.5-18.5,13.5c0,8.2,0,8.3,2.2,10.5l2.2,2.2h14.2c14.2,0,14.2,0,16.1-1.9
		c2.2-2.2,2.8-4.7,2.8-11.7C108.4,199.9,106.3,198.5,89.4,198.5z"/>
	<path d="M165.7,203.8l-2.3-2.5l-2.3-2.5h-14.3h-14.4l-2.1,2.1c-1.9,1.9-2.1,2.5-2.3,9.6c-0.2,8.1,0.5,11.2,3.2,13.1
		c1.2,0.9,4.5,1.1,15.7,1h0c13.7,0,14,0,16.1-1.8c2.1-1.7,2.2-2,2.4-10.4L165.7,203.8z"/>
	<path d="M221.7,202.1c-1.6-2.9-5.1-3.6-17.6-3.6s-16,0.7-17.6,3.6c-0.4,0.8-0.8,5.4-0.8,10.1c0,8.2,0.1,8.6,2,10.5l2,2h14.5h14.5
		l1.9-2.3c1.8-2.1,1.9-2.7,1.9-10.5C222.5,207.3,222.1,202.9,221.7,202.1z"/>
	<path d="M244.9,222.5l2.2,2.3h14c8.1,0,14.6-0.3,15.4-0.8c2.7-1.4,3.7-4.7,3.7-11.9c0-8-0.6-10.1-3.9-12.1
		c-2.2-1.4-3.5-1.5-15.8-1.3l-13.4,0.2l-2.2,2.4c-2.1,2.3-2.2,2.6-2.2,10.7C242.7,220.2,242.7,220.3,244.9,222.5z"/>
	<path d="M132.8,185c0.8,0.4,7.5,0.6,15,0.5l13.4-0.2l2.2-2.5l2.2-2.5l-0.3-8.6c-0.3-8.3-0.4-8.6-2.4-10.4s-2.3-1.8-16.1-1.8h0
		c-15.4,0-16.4,0.2-18.1,4.4c-0.6,1.4-0.9,4.9-0.7,9.7C128.3,181.4,129.2,183.4,132.8,185z"/>
	<path d="M220.3,161.7l-2.2-2.2h-14.2h-14.2l-2,2.1c-1.9,2-2,2.4-2,10.5c0,4.7,0.4,9.2,0.8,10c0.5,0.8,1.9,1.9,3.2,2.5
		c1.7,0.8,5.8,1.1,14.3,1.1c12.6,0,16.1-0.7,17.7-3.6c0.4-0.9,0.8-5.3,0.8-9.9C222.5,164,222.5,163.9,220.3,161.7z"/>
	<path d="M247.5,185c0.8,0.4,7.5,0.6,14.9,0.6l13.3-0.2l2.1-2.1c1.9-1.9,2.1-2.5,2.3-9.6c0.1-4.9-0.1-8.4-0.7-9.8
		c-1.7-4.2-2.7-4.4-18.2-4.4h-14.1l-2.2,2.2c-2.2,2.2-2.2,2.3-2.2,10.4c0,7.2,0.2,8.4,1.6,10.2C245.2,183.4,246.6,184.6,247.5,185z"
		/>
	<path d="M283.6,138.2c1.6-2.3,1.3-5.4-0.6-6.8c-1.4-1.1-12.9-1.2-107.9-1.2H68.8l-1.6,2c-2,2.5-2,3.6,0.3,5.9l1.8,2l106.6-0.2
		C280.5,139.7,282.6,139.6,283.6,138.2z"/>
	<path d="M329.6,247.8c1.8,1.3,3,3.4,3,5.8c0,3.9-3.1,7-7,7c-3.9,0-7-3.1-7-7c0-3.9,3.1-7,7-7c0.5,0,0.9,0,1.3,0.1
		c-7.2-2.8-15.1-4.4-23.3-4.4c-35.3,0-63.9,28.6-63.9,63.9c0,35.3,28.6,63.9,63.9,63.9c35.3,0,63.9-28.6,63.9-63.9
		C367.5,280.2,351.9,257.8,329.6,247.8z M304.3,338.1c-11.6,0-21.1-9.4-21.1-21.1c0-6.2,2.7-11.8,6.9-15.6l9.3,10.4
		c-1.4,1.3-2.2,3.1-2.2,5.1c0,3.9,3.1,7,7,7c3.9,0,7-3.1,7-7c0-1.9-0.7-3.6-1.9-4.9L289,289.5c-3.6-3.8-5.9-8.9-5.9-14.6
		c0-11.6,9.4-21.1,21.1-21.1c11.6,0,21.1,9.4,21.1,21.1c0,8.7-5.3,16.2-12.9,19.4l-0.1,0.1l7,7.9c3.7,3.8,6,9,6,14.8
		C325.4,328.7,315.9,338.1,304.3,338.1z"/>
	<path d="M304.3,267.9c-3.9,0-7,3.1-7,7c0,3.9,3.1,7,7,7c3.9,0,7-3.1,7-7C311.3,271,308.1,267.9,304.3,267.9z"/>
</g>
</svg>
