<svg width="512" height="512" viewBox="0 0 512 512" fill="none" xmlns="http://www.w3.org/2000/svg">
<path fill-rule="evenodd" clip-rule="evenodd" d="M310.727 217C310.727 208.163 303.563 201 294.727 201C285.89 201 278.727 208.163 278.727 217V236.833H259C250.163 236.833 243 243.997 243 252.833C243 261.67 250.163 268.833 259 268.833H266.82V380.167H259C250.163 380.167 243 387.33 243 396.167C243 405.003 250.163 412.167 259 412.167H278.727V432C278.727 440.837 285.89 448 294.727 448C303.563 448 310.727 440.837 310.727 432V412.167H326.362V432C326.362 440.837 333.525 448 342.362 448C351.198 448 358.362 440.837 358.362 432V412.005C370.598 411.033 382.136 405.724 390.866 396.968C400.562 387.244 406 374.065 406 360.333C406 346.975 400.854 334.14 391.648 324.5C400.854 314.86 406 302.025 406 288.667C406 274.935 400.562 261.756 390.866 252.032C382.136 243.276 370.598 237.967 358.362 236.995V217C358.362 208.163 351.198 201 342.362 201C333.525 201 326.362 208.163 326.362 217V236.833H310.727V217ZM298.82 268.833V308.5H354.241L354.273 308.5C359.489 308.5 364.502 306.422 368.205 302.708C371.91 298.992 374 293.942 374 288.667C374 283.391 371.91 278.341 368.205 274.626C364.502 270.911 359.489 268.833 354.273 268.833H342.34H298.82ZM298.82 340.5H342.34L354.273 340.5L354.274 340.5L354.289 340.5C359.5 340.504 364.506 342.582 368.205 346.292C371.91 350.008 374 355.058 374 360.333C374 365.609 371.91 370.659 368.205 374.374C364.502 378.089 359.489 380.167 354.273 380.167L354.241 380.167L342.362 380.167L298.82 380.167V340.5Z" fill="black"/>
<path fill-rule="evenodd" clip-rule="evenodd" d="M323.999 136C220.169 136 135.999 220.17 135.999 324C135.999 427.83 220.169 512 323.999 512C427.828 512 511.999 427.83 511.999 324C511.999 220.17 427.828 136 323.999 136ZM323.999 168C237.842 168 167.999 237.844 167.999 324C167.999 410.156 237.842 480 323.999 480C410.155 480 479.999 410.156 479.999 324C479.999 237.844 410.155 168 323.999 168Z" fill="black"/>
<path d="M76 272C67.1634 272 60 279.163 60 288C60 296.837 67.1634 304 76 304H104C112.837 304 120 296.837 120 288C120 279.163 112.837 272 104 272H76Z" fill="black"/>
<path d="M76 112C67.1634 112 60 119.163 60 128C60 136.837 67.1634 144 76 144H221C229.837 144 237 136.837 237 128C237 119.163 229.837 112 221 112H76Z" fill="black"/>
<path d="M60 0C26.8629 0 0 26.8629 0 60V452C0 485.137 26.8629 512 60 512H196.5C205.337 512 212.5 504.837 212.5 496C212.5 487.163 205.337 480 196.5 480H60C44.536 480 32 467.464 32 452V60C32 44.536 44.536 32 60 32H324C339.464 32 352 44.536 352 60V105C352 113.837 359.163 121 368 121C376.837 121 384 113.837 384 105V60C384 26.8629 357.137 0 324 0H60Z" fill="black"/>
<path d="M76 192C67.1634 192 60 199.163 60 208C60 216.837 67.1634 224 76 224H134.5C143.337 224 150.5 216.837 150.5 208C150.5 199.163 143.337 192 134.5 192H76Z" fill="black"/>
</svg>
