<svg width="512" height="512" viewBox="0 0 512 512" fill="none" xmlns="http://www.w3.org/2000/svg">
<path fill-rule="evenodd" clip-rule="evenodd" d="M209.777 76.7204C219.386 55.005 240.899 41 264.645 41H277.827C312.606 41 340.1 70.4759 337.682 105.171L332.601 178.083C332.359 181.552 335.109 184.5 338.586 184.5H408.294C447.898 184.5 476.637 222.192 466.153 260.383L420.31 427.383C413.158 453.439 389.471 471.5 362.451 471.5H90C56.8629 471.5 30 444.637 30 411.5V244.5C30 211.363 56.8629 184.5 90 184.5H143.855C154.937 184.5 164.976 177.964 169.46 167.83L209.777 76.7204ZM264.645 73C253.563 73 243.524 79.5357 239.04 89.6695L198.723 180.78C189.54 201.532 169.486 215.243 147 216.418V439.5H362.451C375.06 439.5 386.114 431.072 389.452 418.912L435.295 251.912C440.187 234.09 426.776 216.5 408.294 216.5H338.586C316.56 216.5 299.147 197.832 300.678 175.858L305.759 102.947C306.888 86.7554 294.057 73 277.827 73H264.645ZM115 439.5V216.5H90C74.536 216.5 62 229.036 62 244.5V411.5C62 426.964 74.536 439.5 90 439.5H115Z" fill="black"/>
</svg>
