<svg width="512" height="512" viewBox="0 0 512 512" fill="none" xmlns="http://www.w3.org/2000/svg">
<path fill-rule="evenodd" clip-rule="evenodd" d="M360 33.1837C360 24.3472 367.164 17.1837 376 17.1837L486.368 17.1837C495.204 17.1837 502.368 24.3472 502.368 33.1837V143.551C502.368 152.388 495.204 159.551 486.368 159.551C477.531 159.551 470.368 152.388 470.368 143.551V71.8112L335.365 206.814C329.784 212.394 320.968 213.072 314.6 208.41L182.611 111.777L40.2115 229.818C33.4084 235.458 23.3218 234.514 17.6824 227.711C12.043 220.908 12.9863 210.821 19.7894 205.182L171.789 79.182C177.434 74.5029 185.536 74.2591 191.452 78.5902L322.436 174.488L447.74 49.1837L376 49.1837C367.164 49.1837 360 42.0203 360 33.1837ZM200 186C208.837 186 216 193.163 216 202V492C216 500.837 208.837 508 200 508C191.164 508 184 500.837 184 492V202C184 193.163 191.164 186 200 186ZM440 186C448.837 186 456 193.163 456 202V492C456 500.837 448.837 508 440 508C431.164 508 424 500.837 424 492V202C424 193.163 431.164 186 440 186ZM80.0002 256C88.8368 256 96.0002 263.163 96.0002 272V492C96.0002 500.837 88.8368 508 80.0002 508C71.1637 508 64.0002 500.837 64.0002 492V272C64.0002 263.163 71.1637 256 80.0002 256ZM320 256C328.837 256 336 263.163 336 272V492C336 500.837 328.837 508 320 508C311.164 508 304 500.837 304 492V272C304 263.163 311.164 256 320 256Z" fill="black"/>
</svg>
