<svg width="512" height="512" viewBox="0 0 512 512" fill="none" xmlns="http://www.w3.org/2000/svg">
<path fill-rule="evenodd" clip-rule="evenodd" d="M60 70C44.536 70 32 82.536 32 98V413C32 428.464 44.536 441 60 441H452C467.464 441 480 428.464 480 413V175C480 159.536 467.464 147 452 147H275.844C258.639 147 242.261 139.613 230.871 126.717L189.143 79.4656C183.828 73.4471 176.185 70 168.156 70H60ZM0 98C0 64.8629 26.8629 38 60 38H168.156C185.361 38 201.739 45.3866 213.129 58.2834L254.857 105.534C260.172 111.553 267.815 115 275.844 115H452C485.137 115 512 141.863 512 175V413C512 446.137 485.137 473 452 473H60C26.8629 473 0 446.137 0 413V98Z" fill="black"/>
</svg>
