<svg width="512" height="512" viewBox="0 0 512 512" fill="none" xmlns="http://www.w3.org/2000/svg">
<path fill-rule="evenodd" clip-rule="evenodd" d="M253 26C261.837 26 269 33.1634 269 42V71C269 79.8366 261.837 87 253 87C244.163 87 237 79.8366 237 71V42C237 33.1634 244.163 26 253 26ZM75.6863 86.6863C81.9347 80.4379 92.0653 80.4379 98.3137 86.6863L118.82 107.192C125.068 113.441 125.068 123.571 118.82 129.82C112.571 136.068 102.441 136.068 96.1924 129.82L75.6863 109.314C69.4379 103.065 69.4379 92.9347 75.6863 86.6863ZM437.314 86.6863C443.562 92.9347 443.562 103.065 437.314 109.314L416.808 129.82C410.559 136.068 400.429 136.068 394.18 129.82C387.932 123.571 387.932 113.441 394.18 107.192L414.686 86.6863C420.935 80.4379 431.065 80.4379 437.314 86.6863ZM46.0177 256C47.9769 257.962 50.2123 260.152 52.7115 262.528C63.7053 272.977 79.7193 286.935 99.7008 300.879C113.343 310.399 128.678 319.805 145.398 328.078C131.866 307.356 124 282.596 124 256C124 229.403 131.866 204.644 145.398 183.922C128.678 192.195 113.343 201.601 99.7008 211.121C79.7193 225.065 63.7053 239.023 52.7115 249.472C50.2123 251.848 47.9769 254.038 46.0177 256ZM254.549 124.008C184.511 124.568 123.906 155.208 81.388 184.879C59.813 199.935 42.5548 214.977 30.6656 226.278C24.7133 231.935 20.0859 236.675 16.9147 240.037C15.3285 241.718 14.105 243.057 13.2606 243.996C12.8384 244.465 12.5108 244.834 12.2798 245.097C12.1644 245.228 12.0731 245.332 12.0062 245.409L11.9242 245.504L11.8969 245.535L11.8868 245.547C11.8827 245.552 11.8789 245.556 24 256L11.8789 245.556C6.70702 251.558 6.70702 260.442 11.8789 266.444L24 256C11.8789 266.444 11.8827 266.448 11.8868 266.453L11.8969 266.465L11.9242 266.496L12.0062 266.591C12.0731 266.668 12.1644 266.772 12.2798 266.903C12.5108 267.166 12.8384 267.535 13.2606 268.004C14.105 268.943 15.3285 270.282 16.9147 271.963C20.0859 275.325 24.7133 280.065 30.6656 285.722C42.5548 297.023 59.813 312.065 81.388 327.121C123.906 356.792 184.511 387.432 254.549 387.992C255.032 387.997 255.516 388 256 388C256.071 388 256.142 388 256.213 388C256.309 388 256.404 388 256.5 388C327.376 388 388.471 357.058 431.149 327.095C452.604 312.032 469.741 296.983 481.538 285.677C487.445 280.016 492.034 275.274 495.178 271.91C496.751 270.227 497.964 268.887 498.802 267.947C499.22 267.478 499.545 267.108 499.774 266.845C499.889 266.713 499.98 266.608 500.046 266.531L500.128 266.437L500.155 266.405L500.165 266.393C500.169 266.388 500.173 266.384 488 256L500.173 266.384C505.276 260.402 505.276 251.598 500.173 245.616L488 256C500.173 245.616 500.169 245.612 500.165 245.607L500.155 245.595L500.128 245.563L500.046 245.469C499.98 245.392 499.889 245.287 499.774 245.155C499.545 244.892 499.22 244.522 498.802 244.053C497.964 243.113 496.751 241.773 495.178 240.09C492.034 236.726 487.445 231.984 481.538 226.323C469.741 215.017 452.604 199.968 431.149 184.905C388.471 154.942 327.376 124 256.5 124C256.404 124 256.309 124 256.213 124C256.142 124 256.071 124 256 124C255.516 124 255.032 124.003 254.549 124.008ZM254.858 156.006C255.307 156.003 255.756 156.001 256.205 156C311.339 156.111 356 200.84 356 256C356 311.16 311.339 355.889 256.205 356C255.756 355.999 255.307 355.997 254.858 355.994C200.156 355.381 156 310.847 156 256C156 201.153 200.156 156.619 254.858 156.006ZM366.243 328.624C379.995 307.791 388 282.83 388 256C388 229.17 379.995 204.209 366.243 183.376C383.305 191.774 398.918 201.375 412.762 211.095C432.614 225.032 448.499 238.983 459.397 249.427C461.895 251.821 464.127 254.026 466.08 256C464.127 257.974 461.895 260.179 459.397 262.573C448.499 273.017 432.614 286.968 412.762 300.905C398.918 310.625 383.305 320.227 366.243 328.624ZM36.1122 266.454C36.1108 266.456 36.1108 266.456 36.1124 266.454L36.1122 266.454ZM256 222C237.222 222 222 237.222 222 256C222 274.778 237.222 290 256 290C274.778 290 290 274.778 290 256C290 237.222 274.778 222 256 222ZM190 256C190 219.549 219.549 190 256 190C292.451 190 322 219.549 322 256C322 292.451 292.451 322 256 322C219.549 322 190 292.451 190 256ZM36.1124 245.546C36.1108 245.544 36.1108 245.544 36.1122 245.546L36.1124 245.546ZM118.82 382.18C125.068 388.429 125.068 398.559 118.82 404.808L98.3137 425.314C92.0653 431.562 81.9347 431.562 75.6863 425.314C69.4379 419.065 69.4379 408.935 75.6863 402.686L96.1924 382.18C102.441 375.932 112.571 375.932 118.82 382.18ZM394.18 382.18C400.429 375.932 410.559 375.932 416.808 382.18L437.314 402.686C443.562 408.935 443.562 419.065 437.314 425.314C431.065 431.562 420.935 431.562 414.686 425.314L394.18 404.808C387.932 398.559 387.932 388.429 394.18 382.18ZM253 425C261.837 425 269 432.163 269 441V470C269 478.837 261.837 486 253 486C244.163 486 237 478.837 237 470V441C237 432.163 244.163 425 253 425Z" fill="black"/>
</svg>
