<svg width="512" height="512" viewBox="0 0 512 512" fill="none" xmlns="http://www.w3.org/2000/svg">
<path fill-rule="evenodd" clip-rule="evenodd" d="M14 68C14 34.8629 40.8629 8 74 8H181C214.137 8 241 34.8629 241 68V212C241 245.137 214.137 272 181 272H74C40.8629 272 14 245.137 14 212V68ZM74 40C58.536 40 46 52.536 46 68V212C46 227.464 58.536 240 74 240H181C196.464 240 209 227.464 209 212V68C209 52.536 196.464 40 181 40H74ZM271 68C271 34.8629 297.863 8 331 8H438C471.137 8 498 34.8629 498 68V150C498 183.137 471.137 210 438 210H331C297.863 210 271 183.137 271 150V68ZM331 40C315.536 40 303 52.536 303 68V150C303 165.464 315.536 178 331 178H438C453.464 178 466 165.464 466 150V68C466 52.536 453.464 40 438 40H331ZM271 300C271 266.863 297.863 240 331 240H438C471.137 240 498 266.863 498 300V444C498 477.137 471.137 504 438 504H331C297.863 504 271 477.137 271 444V300ZM331 272C315.536 272 303 284.536 303 300V444C303 459.464 315.536 472 331 472H438C453.464 472 466 459.464 466 444V300C466 284.536 453.464 272 438 272H331ZM14 362C14 328.863 40.8629 302 74 302H181C214.137 302 241 328.863 241 362V444C241 477.137 214.137 504 181 504H74C40.8629 504 14 477.137 14 444V362ZM74 334C58.536 334 46 346.536 46 362V444C46 459.464 58.536 472 74 472H181C196.464 472 209 459.464 209 444V362C209 346.536 196.464 334 181 334H74Z" fill="black"/>
</svg>
