<svg width="512" height="512" viewBox="0 0 512 512" fill="none" xmlns="http://www.w3.org/2000/svg">
<path fill-rule="evenodd" clip-rule="evenodd" d="M256 32C132.288 32 32 132.288 32 256C32 379.712 132.288 480 256 480C379.712 480 480 379.712 480 256C480 132.288 379.712 32 256 32ZM0 256C0 114.615 114.615 0 256 0C397.385 0 512 114.615 512 256C512 397.385 397.385 512 256 512C114.615 512 0 397.385 0 256ZM256 121C264.837 121 272 128.163 272 137V215C272 223.837 264.837 231 256 231C247.163 231 240 223.837 240 215V137C240 128.163 247.163 121 256 121ZM204.742 176.001C210.744 182.486 210.354 192.609 203.869 198.611C188.553 212.789 179 233.017 179 255.5C179 298.302 213.698 333 256.5 333C299.302 333 334 298.302 334 255.5C334 233.017 324.447 212.789 309.131 198.611C302.646 192.609 302.256 182.486 308.258 176.001C314.261 169.516 324.384 169.126 330.869 175.128C352.453 195.109 366 223.734 366 255.5C366 315.975 316.975 365 256.5 365C196.025 365 147 315.975 147 255.5C147 223.734 160.547 195.109 182.131 175.128C188.616 169.126 198.739 169.516 204.742 176.001Z" fill="black"/>
</svg>
