<svg width="512" height="512" viewBox="0 0 512 512" fill="none" xmlns="http://www.w3.org/2000/svg">
<g clip-path="url(#clip0_673_3918)">
<path fill-rule="evenodd" clip-rule="evenodd" d="M0 60C0 26.8629 26.8629 0 60 0H324C357.137 0 384 26.8629 384 60V64H452.5C485.637 64 512.5 90.8629 512.5 124V452C512.5 485.137 485.637 512 452.5 512H60C26.8629 512 0 485.137 0 452V60ZM384 96V451.949C384 467.385 396.493 479.909 411.929 479.949L432.25 480H452.5C467.964 480 480.5 467.464 480.5 452V124C480.5 108.536 467.964 96 452.5 96H384ZM358.948 480C354.512 471.628 352 462.081 352 451.949V60C352 44.536 339.464 32 324 32H60C44.536 32 32 44.536 32 60V452C32 467.464 44.536 480 60 480H358.948ZM60 98C60 77.0132 77.0132 60 98 60H154C174.987 60 192 77.0132 192 98V154C192 174.987 174.987 192 154 192H98C77.0132 192 60 174.987 60 154V98ZM98 92C94.6863 92 92 94.6863 92 98V154C92 157.314 94.6863 160 98 160H154C157.314 160 160 157.314 160 154V98C160 94.6863 157.314 92 154 92H98ZM231 93C231 84.1634 238.163 77 247 77H296C304.837 77 312 84.1634 312 93C312 101.837 304.837 109 296 109H247C238.163 109 231 101.837 231 93ZM231 173C231 164.163 238.163 157 247 157H296C304.837 157 312 164.163 312 173C312 181.837 304.837 189 296 189H247C238.163 189 231 181.837 231 173ZM60 253C60 244.163 67.1634 237 76 237H296C304.837 237 312 244.163 312 253C312 261.837 304.837 269 296 269H76C67.1634 269 60 261.837 60 253ZM60 333C60 324.163 67.1634 317 76 317H296C304.837 317 312 324.163 312 333C312 341.837 304.837 349 296 349H76C67.1634 349 60 341.837 60 333ZM60 413C60 404.163 67.1634 397 76 397H296C304.837 397 312 404.163 312 413C312 421.837 304.837 429 296 429H76C67.1634 429 60 421.837 60 413Z" fill="black"/>
</g>
<defs>
<clipPath id="clip0_673_3918">
<rect width="512" height="512" fill="white"/>
</clipPath>
</defs>
</svg>
