<svg width="512" height="512" viewBox="0 0 512 512" fill="none" xmlns="http://www.w3.org/2000/svg">
<path fill-rule="evenodd" clip-rule="evenodd" d="M95 20C95 11.1634 102.163 4 111 4H401C409.837 4 417 11.1634 417 20C417 28.8366 409.837 36 401 36H382.5V144.235C382.5 162.164 374.482 179.154 360.642 190.551L281.169 256L360.642 321.449C374.482 332.846 382.5 349.836 382.5 367.765V476H401C409.837 476 417 483.163 417 492C417 500.837 409.837 508 401 508H111C102.163 508 95 500.837 95 492C95 483.163 102.163 476 111 476H129.5V367.765C129.5 349.836 137.518 332.846 151.358 321.449L230.831 256L151.358 190.551C137.518 179.154 129.5 162.164 129.5 144.235V36H111C102.163 36 95 28.8366 95 20ZM161.5 36V144.235C161.5 152.602 165.242 160.531 171.7 165.849L256 235.273L340.3 165.849C346.758 160.531 350.5 152.602 350.5 144.235V36H161.5ZM256 276.727L171.7 346.151C165.242 351.469 161.5 359.398 161.5 367.765V403.5H350.5V367.765C350.5 359.398 346.758 351.469 340.3 346.151L256 276.727ZM350.5 435.5H161.5V476H350.5V435.5Z" fill="black"/>
</svg>
