<svg width="512" height="512" viewBox="0 0 512 512" fill="none" xmlns="http://www.w3.org/2000/svg">
<g clip-path="url(#clip0_673_3840)">
<path fill-rule="evenodd" clip-rule="evenodd" d="M324 32C237.843 32 168 101.844 168 188C168 274.156 237.843 344 324 344C410.156 344 480 274.156 480 188C480 101.844 410.156 32 324 32ZM136 188C136 84.1705 220.17 0 324 0C427.829 0 512 84.1705 512 188C512 291.83 427.829 376 324 376C277.91 376 235.694 359.415 202.995 331.887L177.121 357.761L188.435 369.075C191.435 372.075 193.121 376.145 193.121 380.388C193.121 384.632 191.435 388.701 188.435 391.702L83.7829 496.354C65.0378 515.099 34.6458 515.099 15.9007 496.354C-2.84449 477.609 -2.84449 447.217 15.9007 428.472L120.552 323.82C123.553 320.819 127.623 319.134 131.866 319.134C136.11 319.134 140.179 320.819 143.18 323.82L154.494 335.133L180.346 309.281C152.679 276.543 136 234.219 136 188ZM131.866 357.761L72.8228 416.804L95.4502 439.432L154.494 380.388L131.866 357.761ZM72.8228 462.059L50.1953 439.432L38.5281 451.099C32.2797 457.347 32.2797 467.478 38.5281 473.726C44.7765 479.975 54.9071 479.975 61.1555 473.726L72.8228 462.059ZM323.621 120C309.157 120 297.431 131.725 297.431 146.189C297.431 160.654 309.157 172.379 323.621 172.379C338.085 172.379 349.81 160.654 349.81 146.189C349.81 131.725 338.085 120 323.621 120ZM278.118 182.463C270.178 172.516 265.431 159.907 265.431 146.189C265.431 114.052 291.484 88 323.621 88C355.758 88 381.81 114.052 381.81 146.189C381.81 159.907 377.064 172.516 369.124 182.463C387.877 190.922 404.442 204.251 415.88 220.7C421.227 228.389 423.78 236.996 423.214 245.718C422.658 254.308 419.155 261.909 414.236 267.975C404.589 279.874 388.741 287 372.242 287H275C258.501 287 242.653 279.874 233.005 267.976C228.087 261.909 224.584 254.308 224.027 245.718C223.462 236.996 226.015 228.389 231.361 220.7C242.798 204.252 259.364 190.923 278.118 182.463ZM323.621 204.379C298.294 204.379 271.914 218.431 257.634 238.969C256.044 241.255 255.904 242.782 255.96 243.648C256.025 244.648 256.458 246.091 257.862 247.822C260.859 251.519 267.198 255 275 255H372.242C380.043 255 386.383 251.519 389.38 247.822C390.783 246.091 391.217 244.648 391.281 243.648C391.338 242.782 391.197 241.255 389.608 238.969C381.859 227.825 370.547 218.59 357.773 212.473L357.203 213.447C347.586 207.82 336.433 204.535 324.48 204.384C324.242 204.381 324.004 204.38 323.765 204.379L323.621 204.379Z" fill="black"/>
</g>
<defs>
<clipPath id="clip0_673_3840">
<rect width="512" height="512" fill="white"/>
</clipPath>
</defs>
</svg>
