<svg width="512" height="512" viewBox="0 0 512 512" fill="none" xmlns="http://www.w3.org/2000/svg">
<path fill-rule="evenodd" clip-rule="evenodd" d="M256.355 190.244C265.192 190.244 272.355 197.408 272.355 206.244V296.062C272.355 304.899 265.192 312.062 256.355 312.062C247.519 312.062 240.355 304.899 240.355 296.062V206.244C240.355 197.408 247.519 190.244 256.355 190.244ZM256.355 339.698C265.192 339.698 272.355 346.861 272.355 355.698V355.947C272.355 364.783 265.192 371.947 256.355 371.947C247.519 371.947 240.355 364.783 240.355 355.947V355.698C240.355 346.861 247.519 339.698 256.355 339.698Z" fill="black"/>
<path fill-rule="evenodd" clip-rule="evenodd" d="M222.679 49.1204C232.807 43.1493 244.349 40 256.106 40C267.863 40 279.406 43.1493 289.533 49.1204C299.612 55.0626 307.924 63.5835 313.614 73.8046L490.393 378.811C490.77 379.461 491.1 380.137 491.382 380.834C495.409 390.788 496.94 401.578 495.84 412.26C494.739 422.942 491.042 433.193 485.07 442.118C479.099 451.043 471.034 458.371 461.579 463.464C452.125 468.556 441.568 471.258 430.83 471.333C430.792 471.333 430.755 471.333 430.717 471.333H81.9928C81.5333 471.333 81.0784 471.314 80.6287 471.276C79.907 471.337 79.1727 471.35 78.429 471.312C67.9442 470.772 57.7407 467.731 48.6704 462.443C39.6002 457.156 31.9265 449.775 26.2899 440.918C20.6533 432.06 17.2174 421.983 16.2691 411.527C15.3207 401.071 16.8875 390.54 20.8385 380.813C21.1185 380.123 21.4462 379.454 21.8193 378.811L198.598 73.8046C204.288 63.5835 212.6 55.0626 222.679 49.1204ZM80.6185 439.392C81.0715 439.353 81.5298 439.333 81.9928 439.333H430.656C436.156 439.286 441.562 437.899 446.405 435.29C451.263 432.674 455.406 428.909 458.475 424.323C461.543 419.737 463.443 414.47 464.008 408.981C464.538 403.831 463.879 398.633 462.086 393.786L285.854 89.7231C285.8 89.6312 285.748 89.5388 285.697 89.4458C282.772 84.1601 278.485 79.7542 273.281 76.6861C268.078 73.6181 262.147 72 256.106 72C250.065 72 244.135 73.6181 238.931 76.6861C233.727 79.7542 229.44 84.1601 226.515 89.4458C226.464 89.5388 226.412 89.6312 226.358 89.7231L50.1199 393.797C48.3605 398.529 47.6814 403.6 48.1383 408.636C48.6255 414.009 50.3909 419.187 53.287 423.738C56.1832 428.289 60.126 432.081 64.7864 434.798C69.4467 437.514 74.6893 439.077 80.0766 439.355C80.2581 439.364 80.4388 439.376 80.6185 439.392Z" fill="black"/>
</svg>
