<svg width="512" height="512" viewBox="0 0 512 512" fill="none" xmlns="http://www.w3.org/2000/svg">
<path fill-rule="evenodd" clip-rule="evenodd" d="M177.575 56.0127C206.811 -13.4145 305.19 -13.4146 334.426 56.0127C343.663 77.9473 366.367 91.0557 389.982 88.0876C464.725 78.6931 513.915 163.892 468.407 223.925C454.03 242.892 454.03 269.108 468.407 288.075C513.915 348.108 464.725 433.307 389.982 423.912C366.367 420.944 343.663 434.053 334.426 455.987C305.19 525.415 206.811 525.415 177.575 455.987C168.338 434.053 145.633 420.944 122.019 423.912C47.2755 433.307 -1.91436 348.108 43.5934 288.075C57.971 269.108 57.971 242.892 43.5934 223.925C-1.91437 163.892 47.2755 78.6931 122.019 88.0876C145.633 91.0557 168.338 77.9473 177.575 56.0127ZM304.934 68.4317C286.693 25.1124 225.308 25.1124 207.066 68.4317C192.263 103.586 155.875 124.595 118.028 119.838C71.392 113.976 40.6998 167.136 69.0945 204.594C92.1373 234.991 92.1373 277.009 69.0945 307.406C40.6999 344.864 71.392 398.024 118.028 392.162C155.875 387.405 192.263 408.414 207.066 443.568C225.308 486.888 286.693 486.888 304.934 443.568C319.738 408.414 356.126 387.405 393.972 392.162C440.609 398.024 471.301 344.864 442.906 307.406C419.864 277.009 419.864 234.991 442.906 204.594C471.301 167.136 440.609 113.976 393.972 119.838C356.126 124.595 319.738 103.586 304.934 68.4317ZM256 178C212.922 178 178 212.922 178 256C178 299.078 212.922 334 256 334C299.079 334 334 299.078 334 256C334 212.922 299.079 178 256 178ZM146 256C146 195.249 195.249 146 256 146C316.752 146 366 195.249 366 256C366 316.751 316.752 366 256 366C195.249 366 146 316.751 146 256Z" fill="black"/>
</svg>
