<svg width="512" height="512" viewBox="0 0 512 512" fill="none" xmlns="http://www.w3.org/2000/svg">
<path fill-rule="evenodd" clip-rule="evenodd" d="M152.285 37C159.814 16.5697 179.456 2 202.5 2H309.5C332.544 2 352.186 16.5697 359.715 37H399C432.137 37 459 63.8629 459 97V452C459 485.137 432.137 512 399 512H113C79.8629 512 53 485.137 53 452V97C53 63.8629 79.8629 37 113 37H152.285ZM150.718 69H113C97.536 69 85 81.536 85 97V452C85 467.464 97.536 480 113 480H399C414.464 480 427 467.464 427 452V97C427 81.536 414.464 69 399 69H361.282C355.3 92.0115 334.384 109 309.5 109H202.5C177.616 109 156.7 92.0115 150.718 69ZM202.5 34C190.626 34 181 43.6259 181 55.5C181 67.3741 190.626 77 202.5 77H309.5C321.374 77 331 67.3741 331 55.5C331 43.6259 321.374 34 309.5 34H202.5ZM225.314 188.686C231.562 194.935 231.562 205.065 225.314 211.314L170.314 266.314C164.065 272.562 153.935 272.562 147.686 266.314L116.686 235.314C110.438 229.065 110.438 218.935 116.686 212.686C122.935 206.438 133.065 206.438 139.314 212.686L159 232.373L202.686 188.686C208.935 182.438 219.065 182.438 225.314 188.686ZM257 237C257 228.163 264.163 221 273 221H384C392.837 221 400 228.163 400 237C400 245.837 392.837 253 384 253H273C264.163 253 257 245.837 257 237ZM225.314 312.686C231.562 318.935 231.562 329.065 225.314 335.314L170.314 390.314C164.065 396.562 153.935 396.562 147.686 390.314L116.686 359.314C110.438 353.065 110.438 342.935 116.686 336.686C122.935 330.438 133.065 330.438 139.314 336.686L159 356.373L202.686 312.686C208.935 306.438 219.065 306.438 225.314 312.686ZM257 361C257 352.163 264.163 345 273 345H384C392.837 345 400 352.163 400 361C400 369.837 392.837 377 384 377H273C264.163 377 257 369.837 257 361Z" fill="black"/>
</svg>
