<svg width="512" height="512" viewBox="0 0 512 512" fill="none" xmlns="http://www.w3.org/2000/svg">
<path fill-rule="evenodd" clip-rule="evenodd" d="M0 60C0 26.8629 26.8629 0 60 0H324C357.137 0 384 26.8629 384 60V260C384 268.837 376.837 276 368 276C359.163 276 352 268.837 352 260V60C352 44.536 339.464 32 324 32H60C44.536 32 32 44.536 32 60V452C32 467.464 44.536 480 60 480H232C240.837 480 248 487.163 248 496C248 504.837 240.837 512 232 512H60C26.8629 512 0 485.137 0 452V60ZM60 128C60 119.163 67.1634 112 76 112H296C304.837 112 312 119.163 312 128C312 136.837 304.837 144 296 144H76C67.1634 144 60 136.837 60 128ZM60 208C60 199.163 67.1634 192 76 192H296C304.837 192 312 199.163 312 208C312 216.837 304.837 224 296 224H76C67.1634 224 60 216.837 60 208ZM408.471 283.314C427.216 264.569 457.608 264.569 476.353 283.314C495.098 302.059 495.098 332.451 476.353 351.196L371.701 455.848C369.87 457.679 367.622 459.038 365.15 459.809L299.39 480.315C293.711 482.086 287.519 480.56 283.313 476.354C279.107 472.148 277.581 465.956 279.352 460.277L299.858 394.516C300.629 392.044 301.988 389.796 303.819 387.966L408.471 283.314ZM453.725 305.941C447.477 299.693 437.346 299.693 431.098 305.941L419.431 317.608L442.058 340.236L453.725 328.569C459.974 322.32 459.974 312.19 453.725 305.941ZM419.431 362.863L396.803 340.236L329.234 407.806L318.981 440.686L351.861 430.433L419.431 362.863ZM60 288C60 279.163 67.1634 272 76 272H296C304.837 272 312 279.163 312 288C312 296.837 304.837 304 296 304H76C67.1634 304 60 296.837 60 288Z" fill="black"/>
</svg>
