<svg width="512" height="512" viewBox="0 0 512 512" fill="none" xmlns="http://www.w3.org/2000/svg">
<path fill-rule="evenodd" clip-rule="evenodd" d="M256 32C132.288 32 32 132.288 32 256C32 379.712 132.288 480 256 480C379.712 480 480 379.712 480 256C480 132.288 379.712 32 256 32ZM0 256C0 114.615 114.615 0 256 0C397.385 0 512 114.615 512 256C512 397.385 397.385 512 256 512C114.615 512 0 397.385 0 256ZM247.173 154C234.994 154 223.718 158.169 215.744 165.003C207.846 171.773 204 180.377 204 188.719C204 197.556 196.837 204.719 188 204.719C179.163 204.719 172 197.556 172 188.719C172 170.158 180.622 152.961 194.919 140.707C209.139 128.519 227.964 122 247.173 122H264.079C283.287 122 302.113 128.519 316.333 140.707C330.512 152.86 339.109 169.876 339.25 188.262C339.964 202.549 336.067 216.692 328.127 228.601C320.281 240.37 308.902 249.335 295.64 254.211C289.317 257.365 283.035 263.555 278.374 272.879C273.578 282.469 271.095 294.253 271.611 306.385C271.987 315.213 265.134 322.675 256.306 323.05C247.477 323.426 240.016 316.573 239.64 307.745C238.911 290.605 242.35 273.371 249.752 258.568C257.142 243.787 268.425 231.62 282.647 224.952C283.131 224.725 283.626 224.522 284.131 224.345C291.231 221.848 297.327 217.112 301.502 210.85C305.677 204.588 307.703 197.139 307.277 189.625C307.26 189.324 307.252 189.022 307.252 188.719C307.252 180.377 303.405 171.773 295.508 165.003C287.534 158.169 276.258 154 264.079 154H247.173ZM255.623 358.69C264.459 358.69 271.623 365.854 271.623 374.69V374.86C271.623 383.696 264.459 390.86 255.623 390.86C246.786 390.86 239.623 383.696 239.623 374.86V374.69C239.623 365.854 246.786 358.69 255.623 358.69Z" fill="black"/>
</svg>
