<svg width="512" height="512" viewBox="0 0 512 512" fill="none" xmlns="http://www.w3.org/2000/svg">
<path fill-rule="evenodd" clip-rule="evenodd" d="M346.877 39.2179C352.856 36.7414 359.738 38.1103 364.314 42.6863L505.564 183.936C511.812 190.185 511.812 200.315 505.564 206.564L364.314 347.814C359.738 352.39 352.856 353.759 346.877 351.282C340.898 348.806 337 342.971 337 336.5V271.875H159.25C150.413 271.875 143.25 264.712 143.25 255.875V213.877L40.6274 316.5L143.25 419.123V377.125C143.25 368.288 150.413 361.125 159.25 361.125H270.75C279.587 361.125 286.75 368.288 286.75 377.125C286.75 385.962 279.587 393.125 270.75 393.125H175.25V457.75C175.25 464.221 171.352 470.056 165.373 472.532C159.394 475.009 152.512 473.64 147.936 469.064L6.68629 327.814C0.437902 321.565 0.437902 311.435 6.68629 305.186L147.936 163.936C152.512 159.36 159.394 157.991 165.373 160.468C171.352 162.944 175.25 168.779 175.25 175.25V239.875H353C361.837 239.875 369 247.038 369 255.875V297.873L471.623 195.25L369 92.6274V134.625C369 143.462 361.837 150.625 353 150.625H241.5C232.663 150.625 225.5 143.462 225.5 134.625C225.5 125.788 232.663 118.625 241.5 118.625H337V54C337 47.5286 340.898 41.6944 346.877 39.2179Z" fill="black"/>
</svg>
