<?xml version="1.0" encoding="utf-8"?>
<!-- Generator: Adobe Illustrator 22.1.0, SVG Export Plug-In . SVG Version: 6.00 Build 0)  -->
<svg version="1.1" id="svg8" xmlns="http://www.w3.org/2000/svg" xmlns:xlink="http://www.w3.org/1999/xlink" x="0px" y="0px"
	 viewBox="0 0 264 264" style="enable-background:new 0 0 264 264;" xml:space="preserve">
<path d="M135.2,251.5c-24.2-2.1-39.8-5.5-48.8-10.6c-4.9-2.8-6.3-5.3-6.3-10.9v-4.4l2.4,2.1c3,2.7,5.5,4,11.5,6
	c25.2,8.6,79,9.3,108.4,1.6c7.3-1.9,16.3-6.1,18.1-8.5l1.5-1.9v4.6c0,5.6-1,7.6-5.4,10.5c-6.4,4.3-19.9,8-36.6,10.2
	C171.9,251.3,142.2,252.1,135.2,251.5z"/>
<path d="M130.8,235c-19.1-1.9-32.9-4.8-40.1-8.4c-5.8-2.9-7.1-4.8-7.1-9.8c0-3.7,1-7.5,2-7.5c0.2,0,2.5,1.5,5.1,3.4
	c10.3,7.5,24.4,10.3,55.2,10.8c20.9,0.4,32.9-0.5,46.5-3.2c9.3-1.9,14.3-4,19.7-8.2l4.4-3.5l1.1,2c1.6,3.1,1.4,9.8-0.4,12
	c-3.3,4.2-17.5,8.8-34.4,11.2C174.6,234.8,138.3,235.7,130.8,235z"/>
<path d="M147.2,21.5c-14.7,0.5-29.3,4.1-42.5,10.8c-19.4,9.8-36.2,26.6-45.9,46.1c-7.2,14.1-10.3,26.8-10.9,43.6
	c-0.4,11.6,0,15.3,3.3,29.1c4.5,18.8,17,38.8,32.4,52c7.5,6.4,12.7,9.4,19.6,11.3c2.1,0.6,3.7,1,4.9,1.2c0.6,0.1,1.1,0.2,1.6,0.3
	c0.5,0.1,0.7,0.2,1.6-0.1c0.4-0.1,1.3-0.6,1.5-1.7c0.2-1-0.2-1.6-0.4-1.9c-0.4-0.6-0.7-0.7-1.1-1c-0.8-0.5-1.8-1.1-3.3-1.8
	c-18.3-9.3-32.9-24-42.2-42.6c-3.2-6.3-7.2-18-8.3-24c-6.1-32.5,4.4-65,28.6-87.8c16.7-15.8,37.6-24.6,61.2-25.6
	c18.1-0.8,35,3.3,50.9,12.3c2.4,1.4,3.8,2.2,5.2,2.6c1.3,0.4,2.9,0.2,3.9-0.3c0.6-0.3,1-0.6,1.5-1c0.2-0.2,0.4-0.4,0.6-0.7
	c0.2-0.3,0.6-0.6,0.6-1.5c0-1.1-0.4-1.4-0.6-1.6s-0.4-0.4-0.6-0.6c-0.4-0.4-0.9-0.7-1.5-1.1c-1.2-0.8-2.9-1.8-4.7-2.8
	c-3.7-2-8.2-4.3-11.6-5.7C176.7,23.6,161.9,21,147.2,21.5z"/>
<path d="M231.1,60.4c-0.9-0.2-1.8,0.1-2.3,0.4s-0.8,0.6-1.1,0.9c-0.3,0.3-0.8,0.6-1.2,1.4c-0.4,0.8-0.4,1.9-0.1,2.7
	c0.5,1.5,1.5,2.7,3.4,5.4c6.7,9.7,12.4,23.5,14.9,35.7c1.9,9.5,2.9,24.3-0.9,41.7c-1,3.2-0.9,3-2.1,6.1c0,0,0,0.1-0.1,0.1
	c-7.6,22.8-24.2,42-45.8,53.7c-2.9,1.6-4.3,2.3-5.4,3.1c-0.3,0.2-0.6,0.2-1,1.4c-0.2,0.6,0.1,1.7,0.6,2.3c0.5,0.5,1,0.6,1.2,0.6
	c1.1,0.2,1.3,0,1.9-0.1c7.4-1.2,14.1-4,19.8-8.2c18-13.3,31.2-32.6,37.5-54.6c3-10.6,3.8-16.7,3.8-28.5c0-15.7-2.9-29.1-9.3-43.1
	c-2.5-5.5-8-14.9-11-18.5C233,61.7,232.8,60.9,231.1,60.4z"/>
<path d="M188.4,204.2c7.4-5.5,17.1-15.3,22.3-22.6c2.3-3.1,4.6-6.3,5.2-7c0.9-1.1,10.2-3.7,10.8-3.1c0.1,0.1-1.4,2.5-3.4,5.3
	c-5.2,7.4-15.7,17.6-23.3,22.7c-5.5,3.6-15.6,9-17,9C182.8,208.5,185.2,206.6,188.4,204.2z"/>
<path d="M222.8,161.1c0.8-1.8,2-4.4,2.7-5.8c1.6-3.1,5.2-18.2,6.3-26.1c0.5-3.4,0.6-10.5,0.4-17.5c-0.4-12.4-1.8-20.9-5-30.4
	c-0.9-2.7-1.5-4.9-1.4-5.1c0.1-0.1,2.1,3.6,4.4,8.3c10.1,20.7,12.2,40.8,6.6,63.3c-0.5,2.1-1.3,4.7-1.8,5.9c-0.5,1.1-0.9,2.3-1,2.7
	c-0.1,0.4-0.6,1.8-1.2,3.2c-1,2.4-1.4,2.6-5.9,3.6c-2.7,0.6-5,1.1-5.2,1.1C221.6,164.4,222.1,162.9,222.8,161.1z"/>
<path d="M65,150.9c-2.6-8.5-3.5-14.2-3.9-23.7c-0.8-17.7,3-33.7,11.4-48.3c4.5-7.8,4.1-7.5,10-8c2.9-0.2,5.3-0.2,5.3,0
	c0,0.3-1.5,2.7-3.4,5.5C80,82.9,74.7,93.6,72,101.3c-4.8,13.5-7.2,33.8-5.6,47.2c0.4,3.6,0.6,6.6,0.4,6.8S65.8,153.5,65,150.9z"/>
<path d="M175.7,87.6c-0.2-0.8-0.6-3.4-0.9-6c-0.8-7.9-4-11.2-11.9-12c-7.9-0.8-8.6-1.4-2.5-2c6.1-0.6,10.4-2.3,12.3-4.9
	c0.7-0.9,1.5-3.7,1.9-6c1.5-9.7,1.5-9.6,2.4-2.7c1.3,9.9,3.6,12.2,13.5,13.5c6.9,0.9,6.8,1-2.5,2.2c-4.3,0.6-7.6,2.5-9.1,5.3
	c-0.6,1.2-1.5,4.8-1.9,8C176.5,86.7,176,88.4,175.7,87.6z"/>
<path d="M217.1,75.5c-1.2-10-2.1-12.7-5.2-16.1c-3.2-3.4-6.5-4.6-16.8-6c-5.3-0.7-9.8-1.4-9.9-1.5c-0.1-0.1,4.1-0.8,9.5-1.4
	c17.7-2.1,20.6-5.2,22.6-23.7c0.5-4.3,1-7.8,1.3-7.8c0.2,0,0.8,3.5,1.3,7.8c1.3,11.2,2.4,14.5,5.9,18.1c3.7,3.7,5.4,4.3,17.4,5.8
	c10.5,1.4,10.5,1.4-3,3.2c-8.3,1.1-11.7,2.4-14.7,5.6c-3.2,3.5-4.1,6.3-5.3,16.2c-0.6,5.3-1.3,9.5-1.5,9.5
	C218.4,85.2,217.7,80.8,217.1,75.5z"/>
<path d="M85.2,61.6C88.3,57.1,102,47,111,42.5c4.8-2.4,16.8-6.6,21.1-7.3c2.1-0.4,0.9,0.5-5.5,3.7c-9.7,4.9-18.2,10.9-26.6,18.6
	l-6,5.6h-4.9h-4.9L85.2,61.6z"/>
<g>
	<path d="M48.5,165.8c-3.6,0-6.6,2.9-6.6,6.6c0,3.6,2.9,6.6,6.6,6.6c3.6,0,6.6-2.9,6.6-6.6C55,168.8,52.1,165.8,48.5,165.8z"/>
	<path d="M36.1,210.5l0.1-0.1c7.1-3,12-10,12-18.1c0-10.9-8.8-19.7-19.7-19.7c-10.9,0-19.7,8.8-19.7,19.7c0,5.3,2.1,10.1,5.5,13.6
		l19,21.2c1.1,1.2,1.8,2.8,1.8,4.5c0,3.6-2.9,6.6-6.6,6.6s-6.6-2.9-6.6-6.6c0-1.9,0.8-3.6,2.1-4.8l-8.7-9.8c-4,3.6-6.5,8.8-6.5,14.6
		c0,10.9,8.8,19.7,19.7,19.7c10.9,0,19.7-8.8,19.7-19.7c0-5.4-2.1-10.2-5.6-13.8L36.1,210.5z M28.6,198.9c-3.6,0-6.6-2.9-6.6-6.6
		c0-3.6,2.9-6.6,6.6-6.6c3.6,0,6.6,2.9,6.6,6.6C35.1,195.9,32.2,198.9,28.6,198.9z"/>
</g>
</svg>
